<svg xmlns="http://www.w3.org/2000/svg" xmlns:svg="http://www.w3.org/2000/svg" xmlns:xlink="http://www.w3.org/1999/xlink" id="svg5" width="1024" height="1024" version="1.1" viewBox="0 0 1024 1024"><g id="layer1" style="display:none"><rect style="opacity:1;fill:#9c8776;fill-opacity:1;stroke-width:.264583;stroke-linecap:round;stroke-linejoin:round" id="rect234" width="9.452" height="11.258" x="-32.512" y="-5.629"/><rect style="opacity:1;fill:#2d61a3;fill-opacity:1;stroke-width:.264583;stroke-linecap:round;stroke-linejoin:round" id="rect1624" width="9.452" height="11.258" x="-19.335" y="-19.675"/><rect style="opacity:1;fill:#dc9c19;fill-opacity:1;stroke-width:.264583;stroke-linecap:round;stroke-linejoin:round" id="rect1626" width="9.452" height="11.258" x="-32.512" y="-19.675"/><rect style="opacity:1;fill:#303547;fill-opacity:1;stroke-width:.264583;stroke-linecap:round;stroke-linejoin:round" id="rect1628" width="9.452" height="11.258" x="-19.335" y="-33.721"/><rect style="opacity:1;fill:#c6dbe6;fill-opacity:1;stroke-width:.264583;stroke-linecap:round;stroke-linejoin:round" id="rect2356" width="9.452" height="11.258" x="-19.335" y="-5.629"/><g id="g10489" style="stroke:#ff36ba;stroke-opacity:1" transform="translate(0,-192)"><path style="fill:none;stroke:#ff36ba;stroke-width:1px;stroke-linecap:butt;stroke-linejoin:miter;stroke-opacity:1" id="path10485" d="m 32,220 v 8"/><g id="g19122"><path style="fill:none;stroke:#ff36ba;stroke-width:1px;stroke-linecap:butt;stroke-linejoin:miter;stroke-opacity:1" id="path10487" d="m 28,224 h 8"/><path id="rect18831" style="opacity:1;fill:#ff36ba;fill-opacity:1;stroke:none;stroke-width:4;stroke-linecap:round;stroke-linejoin:round;stroke-dasharray:none;stroke-opacity:1" d="m 0,192 v 64 h 64 v -64 z m 1,1 h 62 v 62 H 1 Z"/></g></g><use id="use20725" x="0" y="0" xlink:href="#g10489"/><use id="use20727" x="0" y="0" transform="translate(0,64)" xlink:href="#g10489"/><use id="use20729" x="0" y="0" transform="translate(0,128)" xlink:href="#g10489"/><use id="use20731" x="0" y="0" transform="translate(0,192)" xlink:href="#g10489"/><use id="use20733" x="0" y="0" transform="translate(0,256)" xlink:href="#g10489"/><use id="use20735" x="0" y="0" transform="translate(0,320)" xlink:href="#g10489"/><use id="use20737" x="0" y="0" transform="translate(0,384)" xlink:href="#g10489"/><use id="use20739" x="0" y="0" transform="translate(0,448)" xlink:href="#g10489"/><use id="use20741" x="0" y="0" transform="translate(0,512)" xlink:href="#g10489"/><use id="use20743" x="0" y="0" transform="translate(0,576)" xlink:href="#g10489"/><use id="use20745" x="0" y="0" transform="translate(0,640)" xlink:href="#g10489"/><use id="use20747" x="0" y="0" transform="translate(0,704)" xlink:href="#g10489"/><use id="use20749" x="0" y="0" transform="translate(0,768)" xlink:href="#g10489"/><use id="use20751" x="0" y="0" transform="translate(0,832)" xlink:href="#g10489"/><use id="use20753" x="0" y="0" transform="translate(0,896)" xlink:href="#g10489"/><use id="use20755" x="0" y="0" transform="translate(0,960)" xlink:href="#g10489"/><use id="use20757" x="0" y="0" transform="translate(64)" xlink:href="#g10489"/><use id="use20759" x="0" y="0" transform="translate(64,64)" xlink:href="#g10489"/><use id="use20761" x="0" y="0" transform="translate(64,128)" xlink:href="#g10489"/><use id="use20763" x="0" y="0" transform="translate(64,192)" xlink:href="#g10489"/><use id="use20765" x="0" y="0" transform="translate(64,256)" xlink:href="#g10489"/><use id="use20767" x="0" y="0" transform="translate(64,320)" xlink:href="#g10489"/><use id="use20769" x="0" y="0" transform="translate(64,384)" xlink:href="#g10489"/><use id="use20771" x="0" y="0" transform="translate(64,448)" xlink:href="#g10489"/><use id="use20773" x="0" y="0" transform="translate(64,512)" xlink:href="#g10489"/><use id="use20775" x="0" y="0" transform="translate(64,576)" xlink:href="#g10489"/><use id="use20777" x="0" y="0" transform="translate(64,640)" xlink:href="#g10489"/><use id="use20779" x="0" y="0" transform="translate(64,704)" xlink:href="#g10489"/><use id="use20781" x="0" y="0" transform="translate(64,768)" xlink:href="#g10489"/><use id="use20783" x="0" y="0" transform="translate(64,832)" xlink:href="#g10489"/><use id="use20785" x="0" y="0" transform="translate(64,896)" xlink:href="#g10489"/><use id="use20787" x="0" y="0" transform="translate(64,960)" xlink:href="#g10489"/><use id="use20789" x="0" y="0" transform="translate(128)" xlink:href="#g10489"/><use id="use20791" x="0" y="0" transform="translate(128,64)" xlink:href="#g10489"/><use id="use20793" x="0" y="0" transform="translate(128,128)" xlink:href="#g10489"/><use id="use20795" x="0" y="0" transform="translate(128,192)" xlink:href="#g10489"/><use id="use20797" x="0" y="0" transform="translate(128,256)" xlink:href="#g10489"/><use id="use20799" x="0" y="0" transform="translate(128,320)" xlink:href="#g10489"/><use id="use20801" x="0" y="0" transform="translate(128,384)" xlink:href="#g10489"/><use id="use20803" x="0" y="0" transform="translate(128,448)" xlink:href="#g10489"/><use id="use20805" x="0" y="0" transform="translate(128,512)" xlink:href="#g10489"/><use id="use20807" x="0" y="0" transform="translate(128,576)" xlink:href="#g10489"/><use id="use20809" x="0" y="0" transform="translate(128,640)" xlink:href="#g10489"/><use id="use20811" x="0" y="0" transform="translate(128,704)" xlink:href="#g10489"/><use id="use20813" x="0" y="0" transform="translate(128,768)" xlink:href="#g10489"/><use id="use20815" x="0" y="0" transform="translate(128,832)" xlink:href="#g10489"/><use id="use20817" x="0" y="0" transform="translate(128,896)" xlink:href="#g10489"/><use id="use20819" x="0" y="0" transform="translate(128,960)" xlink:href="#g10489"/><use id="use20821" x="0" y="0" transform="translate(192)" xlink:href="#g10489"/><use id="use20823" x="0" y="0" transform="translate(192,64)" xlink:href="#g10489"/><use id="use20825" x="0" y="0" transform="translate(192,128)" xlink:href="#g10489"/><use id="use20827" x="0" y="0" transform="translate(192,192)" xlink:href="#g10489"/><use id="use20829" x="0" y="0" transform="translate(192,256)" xlink:href="#g10489"/><use id="use20831" x="0" y="0" transform="translate(192,320)" xlink:href="#g10489"/><use id="use20833" x="0" y="0" transform="translate(192,384)" xlink:href="#g10489"/><use id="use20835" x="0" y="0" transform="translate(192,448)" xlink:href="#g10489"/><use id="use20837" x="0" y="0" transform="translate(192,512)" xlink:href="#g10489"/><use id="use20839" x="0" y="0" transform="translate(192,576)" xlink:href="#g10489"/><use id="use20841" x="0" y="0" transform="translate(192,640)" xlink:href="#g10489"/><use id="use20843" x="0" y="0" transform="translate(192,704)" xlink:href="#g10489"/><use id="use20845" x="0" y="0" transform="translate(192,768)" xlink:href="#g10489"/><use id="use20847" x="0" y="0" transform="translate(192,832)" xlink:href="#g10489"/><use id="use20849" x="0" y="0" transform="translate(192,896)" xlink:href="#g10489"/><use id="use20851" x="0" y="0" transform="translate(192,960)" xlink:href="#g10489"/><use id="use20853" x="0" y="0" transform="translate(256)" xlink:href="#g10489"/><use id="use20855" x="0" y="0" transform="translate(256,64)" xlink:href="#g10489"/><use id="use20857" x="0" y="0" transform="translate(256,128)" xlink:href="#g10489"/><use id="use20859" x="0" y="0" transform="translate(256,192)" xlink:href="#g10489"/><use id="use20861" x="0" y="0" transform="translate(256,256)" xlink:href="#g10489"/><use id="use20863" x="0" y="0" transform="translate(256,320)" xlink:href="#g10489"/><use id="use20865" x="0" y="0" transform="translate(256,384)" xlink:href="#g10489"/><use id="use20867" x="0" y="0" transform="translate(256,448)" xlink:href="#g10489"/><use id="use20869" x="0" y="0" transform="translate(256,512)" xlink:href="#g10489"/><use id="use20871" x="0" y="0" transform="translate(256,576)" xlink:href="#g10489"/><use id="use20873" x="0" y="0" transform="translate(256,640)" xlink:href="#g10489"/><use id="use20875" x="0" y="0" transform="translate(256,704)" xlink:href="#g10489"/><use id="use20877" x="0" y="0" transform="translate(256,768)" xlink:href="#g10489"/><use id="use20879" x="0" y="0" transform="translate(256,832)" xlink:href="#g10489"/><use id="use20881" x="0" y="0" transform="translate(256,896)" xlink:href="#g10489"/><use id="use20883" x="0" y="0" transform="translate(256,960)" xlink:href="#g10489"/><use id="use20885" x="0" y="0" transform="translate(320)" xlink:href="#g10489"/><use id="use20887" x="0" y="0" transform="translate(320,64)" xlink:href="#g10489"/><use id="use20889" x="0" y="0" transform="translate(320,128)" xlink:href="#g10489"/><use id="use20891" x="0" y="0" transform="translate(320,192)" xlink:href="#g10489"/><use id="use20893" x="0" y="0" transform="translate(320,256)" xlink:href="#g10489"/><use id="use20895" x="0" y="0" transform="translate(320,320)" xlink:href="#g10489"/><use id="use20897" x="0" y="0" transform="translate(320,384)" xlink:href="#g10489"/><use id="use20899" x="0" y="0" transform="translate(320,448)" xlink:href="#g10489"/><use id="use20901" x="0" y="0" transform="translate(320,512)" xlink:href="#g10489"/><use id="use20903" x="0" y="0" transform="translate(320,576)" xlink:href="#g10489"/><use id="use20905" x="0" y="0" transform="translate(320,640)" xlink:href="#g10489"/><use id="use20907" x="0" y="0" transform="translate(320,704)" xlink:href="#g10489"/><use id="use20909" x="0" y="0" transform="translate(320,768)" xlink:href="#g10489"/><use id="use20911" x="0" y="0" transform="translate(320,832)" xlink:href="#g10489"/><use id="use20913" x="0" y="0" transform="translate(320,896)" xlink:href="#g10489"/><use id="use20915" x="0" y="0" transform="translate(320,960)" xlink:href="#g10489"/><use id="use20917" x="0" y="0" transform="translate(384)" xlink:href="#g10489"/><use id="use20919" x="0" y="0" transform="translate(384,64)" xlink:href="#g10489"/><use id="use20921" x="0" y="0" transform="translate(384,128)" xlink:href="#g10489"/><use id="use20923" x="0" y="0" transform="translate(384,192)" xlink:href="#g10489"/><use id="use20925" x="0" y="0" transform="translate(384,256)" xlink:href="#g10489"/><use id="use20927" x="0" y="0" transform="translate(384,320)" xlink:href="#g10489"/><use id="use20929" x="0" y="0" transform="translate(384,384)" xlink:href="#g10489"/><use id="use20931" x="0" y="0" transform="translate(384,448)" xlink:href="#g10489"/><use id="use20933" x="0" y="0" transform="translate(384,512)" xlink:href="#g10489"/><use id="use20935" x="0" y="0" transform="translate(384,576)" xlink:href="#g10489"/><use id="use20937" x="0" y="0" transform="translate(384,640)" xlink:href="#g10489"/><use id="use20939" x="0" y="0" transform="translate(384,704)" xlink:href="#g10489"/><use id="use20941" x="0" y="0" transform="translate(384,768)" xlink:href="#g10489"/><use id="use20943" x="0" y="0" transform="translate(384,832)" xlink:href="#g10489"/><use id="use20945" x="0" y="0" transform="translate(384,896)" xlink:href="#g10489"/><use id="use20947" x="0" y="0" transform="translate(384,960)" xlink:href="#g10489"/><use id="use20949" x="0" y="0" transform="translate(448)" xlink:href="#g10489"/><use id="use20951" x="0" y="0" transform="translate(448,64)" xlink:href="#g10489"/><use id="use20953" x="0" y="0" transform="translate(448,128)" xlink:href="#g10489"/><use id="use20955" x="0" y="0" transform="translate(448,192)" xlink:href="#g10489"/><use id="use20957" x="0" y="0" transform="translate(448,256)" xlink:href="#g10489"/><use id="use20959" x="0" y="0" transform="translate(448,320)" xlink:href="#g10489"/><use id="use20961" x="0" y="0" transform="translate(448,384)" xlink:href="#g10489"/><use id="use20963" x="0" y="0" transform="translate(448,448)" xlink:href="#g10489"/><use id="use20965" x="0" y="0" transform="translate(448,512)" xlink:href="#g10489"/><use id="use20967" x="0" y="0" transform="translate(448,576)" xlink:href="#g10489"/><use id="use20969" x="0" y="0" transform="translate(448,640)" xlink:href="#g10489"/><use id="use20971" x="0" y="0" transform="translate(448,704)" xlink:href="#g10489"/><use id="use20973" x="0" y="0" transform="translate(448,768)" xlink:href="#g10489"/><use id="use20975" x="0" y="0" transform="translate(448,832)" xlink:href="#g10489"/><use id="use20977" x="0" y="0" transform="translate(448,896)" xlink:href="#g10489"/><use id="use20979" x="0" y="0" transform="translate(448,960)" xlink:href="#g10489"/><use id="use20981" x="0" y="0" transform="translate(512)" xlink:href="#g10489"/><use id="use20983" x="0" y="0" transform="translate(512,64)" xlink:href="#g10489"/><use id="use20985" x="0" y="0" transform="translate(512,128)" xlink:href="#g10489"/><use id="use20987" x="0" y="0" transform="translate(512,192)" xlink:href="#g10489"/><use id="use20989" x="0" y="0" transform="translate(512,256)" xlink:href="#g10489"/><use id="use20991" x="0" y="0" transform="translate(512,320)" xlink:href="#g10489"/><use id="use20993" x="0" y="0" transform="translate(512,384)" xlink:href="#g10489"/><use id="use20995" x="0" y="0" transform="translate(512,448)" xlink:href="#g10489"/><use id="use20997" x="0" y="0" transform="translate(512,512)" xlink:href="#g10489"/><use id="use20999" x="0" y="0" transform="translate(512,576)" xlink:href="#g10489"/><use id="use21001" x="0" y="0" transform="translate(512,640)" xlink:href="#g10489"/><use id="use21003" x="0" y="0" transform="translate(512,704)" xlink:href="#g10489"/><use id="use21005" x="0" y="0" transform="translate(512,768)" xlink:href="#g10489"/><use id="use21007" x="0" y="0" transform="translate(512,832)" xlink:href="#g10489"/><use id="use21009" x="0" y="0" transform="translate(512,896)" xlink:href="#g10489"/><use id="use21011" x="0" y="0" transform="translate(512,960)" xlink:href="#g10489"/><use id="use21013" x="0" y="0" transform="translate(576)" xlink:href="#g10489"/><use id="use21015" x="0" y="0" transform="translate(576,64)" xlink:href="#g10489"/><use id="use21017" x="0" y="0" transform="translate(576,128)" xlink:href="#g10489"/><use id="use21019" x="0" y="0" transform="translate(576,192)" xlink:href="#g10489"/><use id="use21021" x="0" y="0" transform="translate(576,256)" xlink:href="#g10489"/><use id="use21023" x="0" y="0" transform="translate(576,320)" xlink:href="#g10489"/><use id="use21025" x="0" y="0" transform="translate(576,384)" xlink:href="#g10489"/><use id="use21027" x="0" y="0" transform="translate(576,448)" xlink:href="#g10489"/><use id="use21029" x="0" y="0" transform="translate(576,512)" xlink:href="#g10489"/><use id="use21031" x="0" y="0" transform="translate(576,576)" xlink:href="#g10489"/><use id="use21033" x="0" y="0" transform="translate(576,640)" xlink:href="#g10489"/><use id="use21035" x="0" y="0" transform="translate(576,704)" xlink:href="#g10489"/><use id="use21037" x="0" y="0" transform="translate(576,768)" xlink:href="#g10489"/><use id="use21039" x="0" y="0" transform="translate(576,832)" xlink:href="#g10489"/><use id="use21041" x="0" y="0" transform="translate(576,896)" xlink:href="#g10489"/><use id="use21043" x="0" y="0" transform="translate(576,960)" xlink:href="#g10489"/><use id="use21045" x="0" y="0" transform="translate(640)" xlink:href="#g10489"/><use id="use21047" x="0" y="0" transform="translate(640,64)" xlink:href="#g10489"/><use id="use21049" x="0" y="0" transform="translate(640,128)" xlink:href="#g10489"/><use id="use21051" x="0" y="0" transform="translate(640,192)" xlink:href="#g10489"/><use id="use21053" x="0" y="0" transform="translate(640,256)" xlink:href="#g10489"/><use id="use21055" x="0" y="0" transform="translate(640,320)" xlink:href="#g10489"/><use id="use21057" x="0" y="0" transform="translate(640,384)" xlink:href="#g10489"/><use id="use21059" x="0" y="0" transform="translate(640,448)" xlink:href="#g10489"/><use id="use21061" x="0" y="0" transform="translate(640,512)" xlink:href="#g10489"/><use id="use21063" x="0" y="0" transform="translate(640,576)" xlink:href="#g10489"/><use id="use21065" x="0" y="0" transform="translate(640,640)" xlink:href="#g10489"/><use id="use21067" x="0" y="0" transform="translate(640,704)" xlink:href="#g10489"/><use id="use21069" x="0" y="0" transform="translate(640,768)" xlink:href="#g10489"/><use id="use21071" x="0" y="0" transform="translate(640,832)" xlink:href="#g10489"/><use id="use21073" x="0" y="0" transform="translate(640,896)" xlink:href="#g10489"/><use id="use21075" x="0" y="0" transform="translate(640,960)" xlink:href="#g10489"/><use id="use21077" x="0" y="0" transform="translate(704)" xlink:href="#g10489"/><use id="use21079" x="0" y="0" transform="translate(704,64)" xlink:href="#g10489"/><use id="use21081" x="0" y="0" transform="translate(704,128)" xlink:href="#g10489"/><use id="use21083" x="0" y="0" transform="translate(704,192)" xlink:href="#g10489"/><use id="use21085" x="0" y="0" transform="translate(704,256)" xlink:href="#g10489"/><use id="use21087" x="0" y="0" transform="translate(704,320)" xlink:href="#g10489"/><use id="use21089" x="0" y="0" transform="translate(704,384)" xlink:href="#g10489"/><use id="use21091" x="0" y="0" transform="translate(704,448)" xlink:href="#g10489"/><use id="use21093" x="0" y="0" transform="translate(704,512)" xlink:href="#g10489"/><use id="use21095" x="0" y="0" transform="translate(704,576)" xlink:href="#g10489"/><use id="use21097" x="0" y="0" transform="translate(704,640)" xlink:href="#g10489"/><use id="use21099" x="0" y="0" transform="translate(704,704)" xlink:href="#g10489"/><use id="use21101" x="0" y="0" transform="translate(704,768)" xlink:href="#g10489"/><use id="use21103" x="0" y="0" transform="translate(704,832)" xlink:href="#g10489"/><use id="use21105" x="0" y="0" transform="translate(704,896)" xlink:href="#g10489"/><use id="use21107" x="0" y="0" transform="translate(704,960)" xlink:href="#g10489"/><use id="use21109" x="0" y="0" transform="translate(768)" xlink:href="#g10489"/><use id="use21111" x="0" y="0" transform="translate(768,64)" xlink:href="#g10489"/><use id="use21113" x="0" y="0" transform="translate(768,128)" xlink:href="#g10489"/><use id="use21115" x="0" y="0" transform="translate(768,192)" xlink:href="#g10489"/><use id="use21117" x="0" y="0" transform="translate(768,256)" xlink:href="#g10489"/><use id="use21119" x="0" y="0" transform="translate(768,320)" xlink:href="#g10489"/><use id="use21121" x="0" y="0" transform="translate(768,384)" xlink:href="#g10489"/><use id="use21123" x="0" y="0" transform="translate(768,448)" xlink:href="#g10489"/><use id="use21125" x="0" y="0" transform="translate(768,512)" xlink:href="#g10489"/><use id="use21127" x="0" y="0" transform="translate(768,576)" xlink:href="#g10489"/><use id="use21129" x="0" y="0" transform="translate(768,640)" xlink:href="#g10489"/><use id="use21131" x="0" y="0" transform="translate(768,704)" xlink:href="#g10489"/><use id="use21133" x="0" y="0" transform="translate(768,768)" xlink:href="#g10489"/><use id="use21135" x="0" y="0" transform="translate(768,832)" xlink:href="#g10489"/><use id="use21137" x="0" y="0" transform="translate(768,896)" xlink:href="#g10489"/><use id="use21139" x="0" y="0" transform="translate(768,960)" xlink:href="#g10489"/><use id="use21141" x="0" y="0" transform="translate(832)" xlink:href="#g10489"/><use id="use21143" x="0" y="0" transform="translate(832,64)" xlink:href="#g10489"/><use id="use21145" x="0" y="0" transform="translate(832,128)" xlink:href="#g10489"/><use id="use21147" x="0" y="0" transform="translate(832,192)" xlink:href="#g10489"/><use id="use21149" x="0" y="0" transform="translate(832,256)" xlink:href="#g10489"/><use id="use21151" x="0" y="0" transform="translate(832,320)" xlink:href="#g10489"/><use id="use21153" x="0" y="0" transform="translate(832,384)" xlink:href="#g10489"/><use id="use21155" x="0" y="0" transform="translate(832,448)" xlink:href="#g10489"/><use id="use21157" x="0" y="0" transform="translate(832,512)" xlink:href="#g10489"/><use id="use21159" x="0" y="0" transform="translate(832,576)" xlink:href="#g10489"/><use id="use21161" x="0" y="0" transform="translate(832,640)" xlink:href="#g10489"/><use id="use21163" x="0" y="0" transform="translate(832,704)" xlink:href="#g10489"/><use id="use21165" x="0" y="0" transform="translate(832,768)" xlink:href="#g10489"/><use id="use21167" x="0" y="0" transform="translate(832,832)" xlink:href="#g10489"/><use id="use21169" x="0" y="0" transform="translate(832,896)" xlink:href="#g10489"/><use id="use21171" x="0" y="0" transform="translate(832,960)" xlink:href="#g10489"/><use id="use21173" x="0" y="0" transform="translate(896)" xlink:href="#g10489"/><use id="use21175" x="0" y="0" transform="translate(896,64)" xlink:href="#g10489"/><use id="use21177" x="0" y="0" transform="translate(896,128)" xlink:href="#g10489"/><use id="use21179" x="0" y="0" transform="translate(896,192)" xlink:href="#g10489"/><use id="use21181" x="0" y="0" transform="translate(896,256)" xlink:href="#g10489"/><use id="use21183" x="0" y="0" transform="translate(896,320)" xlink:href="#g10489"/><use id="use21185" x="0" y="0" transform="translate(896,384)" xlink:href="#g10489"/><use id="use21187" x="0" y="0" transform="translate(896,448)" xlink:href="#g10489"/><use id="use21189" x="0" y="0" transform="translate(896,512)" xlink:href="#g10489"/><use id="use21191" x="0" y="0" transform="translate(896,576)" xlink:href="#g10489"/><use id="use21193" x="0" y="0" transform="translate(896,640)" xlink:href="#g10489"/><use id="use21195" x="0" y="0" transform="translate(896,704)" xlink:href="#g10489"/><use id="use21197" x="0" y="0" transform="translate(896,768)" xlink:href="#g10489"/><use id="use21199" x="0" y="0" transform="translate(896,832)" xlink:href="#g10489"/><use id="use21201" x="0" y="0" transform="translate(896,896)" xlink:href="#g10489"/><use id="use21203" x="0" y="0" transform="translate(896,960)" xlink:href="#g10489"/><use id="use21205" x="0" y="0" transform="translate(960)" xlink:href="#g10489"/><use id="use21207" x="0" y="0" transform="translate(960,64)" xlink:href="#g10489"/><use id="use21209" x="0" y="0" transform="translate(960,128)" xlink:href="#g10489"/><use id="use21211" x="0" y="0" transform="translate(960,192)" xlink:href="#g10489"/><use id="use21213" x="0" y="0" transform="translate(960,256)" xlink:href="#g10489"/><use id="use21215" x="0" y="0" transform="translate(960,320)" xlink:href="#g10489"/><use id="use21217" x="0" y="0" transform="translate(960,384)" xlink:href="#g10489"/><use id="use21219" x="0" y="0" transform="translate(960,448)" xlink:href="#g10489"/><use id="use21221" x="0" y="0" transform="translate(960,512)" xlink:href="#g10489"/><use id="use21223" x="0" y="0" transform="translate(960,576)" xlink:href="#g10489"/><use id="use21225" x="0" y="0" transform="translate(960,640)" xlink:href="#g10489"/><use id="use21227" x="0" y="0" transform="translate(960,704)" xlink:href="#g10489"/><use id="use21229" x="0" y="0" transform="translate(960,768)" xlink:href="#g10489"/><use id="use21231" x="0" y="0" transform="translate(960,832)" xlink:href="#g10489"/><use id="use21233" x="0" y="0" transform="translate(960,896)" xlink:href="#g10489"/><use id="use21235" x="0" y="0" transform="translate(960,960)" xlink:href="#g10489"/><rect style="opacity:1;fill:#ecf9fc;fill-opacity:1;stroke-width:.264583;stroke-linecap:round;stroke-linejoin:round" id="rect5882" width="9.452" height="11.258" x="-19.335" y="8.417"/></g><g id="layer2" style="display:inline"><path id="path7112" style="fill:#c6dbe6;fill-opacity:1;stroke-width:4;stroke-linecap:round;stroke-linejoin:round" d="m 268,68 a 8,8 0 0 0 -8,8 v 40 a 8,8 0 0 0 8,8 h 40 a 8,8 0 0 0 8,-8 V 76 a 8,8 0 0 0 -8,-8 z m 0,4 h 40 a 4,4 0 0 1 4,4 v 40 a 4,4 0 0 1 -4,4 h -40 a 4,4 0 0 1 -4,-4 V 76 a 4,4 0 0 1 4,-4 z"/><path style="fill:none;stroke:#c6dbe6;stroke-width:12;stroke-linecap:round;stroke-linejoin:miter;stroke-dasharray:none;stroke-opacity:1" id="path7114" d="m 308,76 -40,40"/><circle style="fill:#c6dbe6;stroke-width:4;stroke-linecap:round;stroke-linejoin:round;fill-opacity:1" id="path651" cx="96" cy="96" r="28"/><rect style="fill:#c6dbe6;fill-opacity:1;stroke:none;stroke-width:4;stroke-linecap:round;stroke-linejoin:round;stroke-dasharray:none;stroke-opacity:1" id="rect9174" width="64" height="64" x="0" y="64" rx="12"/><circle style="fill:#c6dbe6;fill-opacity:1;stroke:none;stroke-width:4;stroke-linecap:round;stroke-linejoin:round;stroke-dasharray:none;stroke-opacity:1" id="path8086" cx="96" cy="32" r="32"/><path id="path4811" style="fill:#c6dbe6;stroke-width:4;stroke-linecap:round;stroke-linejoin:round;fill-opacity:1" d="M 12 4 A 8 8 0 0 0 4 12 L 4 52 A 8 8 0 0 0 12 60 L 52 60 A 8 8 0 0 0 60 52 L 60 12 A 8 8 0 0 0 52 4 L 12 4 z M 12 8 L 52 8 A 4 4 0 0 1 56 12 L 56 52 A 4 4 0 0 1 52 56 L 12 56 A 4 4 0 0 1 8 52 L 8 12 A 4 4 0 0 1 12 8 z"/><circle style="fill:#ecf9fc;fill-opacity:1;stroke:none;stroke-width:4;stroke-linecap:round;stroke-linejoin:round;stroke-dasharray:none;stroke-opacity:1" id="path8209" cx="96" cy="32" r="28"/><path id="path7006" style="fill:#9c8776;fill-opacity:1;stroke-width:4;stroke-linecap:round;stroke-linejoin:round" d="M 96 4 A 28 28 0 0 0 68 32 A 28 28 0 0 0 96 60 A 28 28 0 0 0 124 32 A 28 28 0 0 0 96 4 z M 96 8 A 24 24 0 0 1 120 32 A 24 24 0 0 1 96 56 A 24 24 0 0 1 72 32 A 24 24 0 0 1 96 8 z"/><path style="fill:none;stroke:#dc9c19;stroke-width:4;stroke-linecap:round;stroke-linejoin:round;stroke-dasharray:none;stroke-opacity:1" id="path7490" d="M 108,40 96,48 84,40"/><path id="path7751" style="fill:#303547;fill-opacity:1;stroke:none;stroke-width:4.00001;stroke-linecap:round;stroke-linejoin:round;stroke-dasharray:none;stroke-opacity:1" d="M 96,12 A 12,12 0 0 0 84,24 12,12 0 0 0 96,36 12,12 0 0 0 108,24 12,12 0 0 0 96,12 Z m 0,4 a 7.9999995,7.9999995 0 0 1 8,8 7.9999995,7.9999995 0 0 1 -8,8 7.9999995,7.9999995 0 0 1 -8,-8 7.9999995,7.9999995 0 0 1 8,-8 z"/><rect style="fill:#ecf9fc;fill-opacity:1;stroke:none;stroke-width:4;stroke-linecap:round;stroke-linejoin:round;stroke-dasharray:none;stroke-opacity:1" id="rect9297" width="56" height="56" x="4" y="68" rx="8"/><path id="path8909" style="fill:#9c8776;fill-opacity:1;stroke-width:4;stroke-linecap:round;stroke-linejoin:round" d="M 12 68 A 8 8 0 0 0 4 76 L 4 80 A 4 4 0 0 0 8 76 A 4 4 0 0 1 12 72 L 52 72 A 4 4 0 0 1 56 76 A 4 4 0 0 0 60 80 L 60 76 A 8 8 0 0 0 52 68 L 12 68 z M 4 112 L 4 116 A 8 8 0 0 0 12 124 L 20 124 L 24 124 A 4 4 0 0 0 20 120 L 12 120 A 4 4 0 0 1 8 116 A 4 4 0 0 0 4 112 z M 60 112 A 4 4 0 0 0 56 116 A 4 4 0 0 1 52 120 L 44 120 A 4 4 0 0 0 40 124 L 44 124 L 52 124 A 8 8 0 0 0 60 116 L 60 112 z"/><path style="fill:none;stroke:#2d61a3;stroke-width:4;stroke-linecap:round;stroke-linejoin:round;stroke-dasharray:none;stroke-opacity:1" id="path9049" d="m 8,84 8,12 -8,12"/><path style="fill:none;stroke:#2d61a3;stroke-width:4;stroke-linecap:round;stroke-linejoin:round;stroke-dasharray:none;stroke-opacity:1" id="path9051" d="M 56,108 48,96 56,84"/><path style="fill:none;stroke:#dc9c19;stroke-width:4;stroke-linecap:round;stroke-linejoin:round;stroke-dasharray:none;stroke-opacity:1" id="path9636" d="m 44,112 -12,8 -12,-8"/><circle style="fill:#c6dbe6;fill-opacity:1;stroke:none;stroke-width:4;stroke-linecap:round;stroke-linejoin:round;stroke-dasharray:none;stroke-opacity:1" id="circle9924" cx="160" cy="32" r="32"/><circle style="fill:#ecf9fc;fill-opacity:1;stroke:none;stroke-width:4;stroke-linecap:round;stroke-linejoin:round;stroke-dasharray:none;stroke-opacity:1" id="circle9926" cx="160" cy="32" r="28"/><path id="path9928" style="fill:#9c8776;fill-opacity:1;stroke-width:4;stroke-linecap:round;stroke-linejoin:round" d="M 160,4 A 28,28 0 0 0 132,32 28,28 0 0 0 160,60 28,28 0 0 0 188,32 28,28 0 0 0 160,4 Z m 0,4 A 24,24 0 0 1 184,32 24,24 0 0 1 160,56 24,24 0 0 1 136,32 24,24 0 0 1 160,8 Z"/><path style="fill:none;stroke:#2d61a3;stroke-width:4;stroke-linecap:round;stroke-linejoin:round;stroke-dasharray:none;stroke-opacity:1" id="path9930" d="m 172,16 -12,8 -12,-8"/><path id="path9932" style="fill:#303547;fill-opacity:1;stroke:none;stroke-width:4.00001;stroke-linecap:round;stroke-linejoin:round;stroke-dasharray:none;stroke-opacity:1" d="m 160,28 a 12,12 0 0 0 -12,12 12,12 0 0 0 12,12 12,12 0 0 0 12,-12 12,12 0 0 0 -12,-12 z m 0,4 a 7.9999995,7.9999995 0 0 1 8,8 7.9999995,7.9999995 0 0 1 -8,8 7.9999995,7.9999995 0 0 1 -8,-8 7.9999995,7.9999995 0 0 1 8,-8 z"/><rect style="fill:#c6dbe6;fill-opacity:1;stroke:none;stroke-width:4;stroke-linecap:round;stroke-linejoin:round;stroke-dasharray:none;stroke-opacity:1" id="rect11712" width="64" height="64" x="192" y="0" rx="12"/><rect style="fill:#ecf9fc;fill-opacity:1;stroke:none;stroke-width:4;stroke-linecap:round;stroke-linejoin:round;stroke-dasharray:none;stroke-opacity:1" id="rect11714" width="56" height="56" x="196" y="4" rx="8"/><path id="path11716" style="fill:#9c8776;fill-opacity:1;stroke-width:4;stroke-linecap:round;stroke-linejoin:round" d="m 204,4 a 8,8 0 0 0 -8,8 v 4 a 4,4 0 0 0 4,-4 4,4 0 0 1 4,-4 h 40 a 4,4 0 0 1 4,4 4,4 0 0 0 4,4 v -4 a 8,8 0 0 0 -8,-8 z m -8,44 v 4 a 8,8 0 0 0 8,8 h 8 4 a 4,4 0 0 0 -4,-4 h -8 a 4,4 0 0 1 -4,-4 4,4 0 0 0 -4,-4 z m 56,0 a 4,4 0 0 0 -4,4 4,4 0 0 1 -4,4 h -8 a 4,4 0 0 0 -4,4 h 4 8 a 8,8 0 0 0 8,-8 z"/><path style="fill:none;stroke:#2d61a3;stroke-width:4;stroke-linecap:round;stroke-linejoin:round;stroke-dasharray:none;stroke-opacity:1" id="path11718" d="m 200,20 8,12 -8,12"/><path style="fill:none;stroke:#2d61a3;stroke-width:4;stroke-linecap:round;stroke-linejoin:round;stroke-dasharray:none;stroke-opacity:1" id="path11720" d="m 248,44 -8,-12 8,-12"/><path style="fill:none;stroke:#dc9c19;stroke-width:4;stroke-linecap:round;stroke-linejoin:round;stroke-dasharray:none;stroke-opacity:1" id="path11722" d="m 236,48 -12,8 -12,-8"/><rect style="fill:#c6dbe6;fill-opacity:1;stroke:none;stroke-width:4;stroke-linecap:round;stroke-linejoin:round;stroke-dasharray:none;stroke-opacity:1" id="rect11724" width="64" height="64" x="256" y="0" rx="12"/><rect style="fill:#ecf9fc;fill-opacity:1;stroke:none;stroke-width:4;stroke-linecap:round;stroke-linejoin:round;stroke-dasharray:none;stroke-opacity:1" id="rect11726" width="56" height="56" x="260" y="4" rx="8"/><path id="path11728" style="fill:#9c8776;fill-opacity:1;stroke-width:4;stroke-linecap:round;stroke-linejoin:round" d="m 268,4 a 8,8 0 0 0 -8,8 v 4 a 4,4 0 0 0 4,-4 4,4 0 0 1 4,-4 h 40 a 4,4 0 0 1 4,4 4,4 0 0 0 4,4 v -4 a 8,8 0 0 0 -8,-8 z m -8,44 v 4 a 8,8 0 0 0 8,8 h 8 4 a 4,4 0 0 0 -4,-4 h -8 a 4,4 0 0 1 -4,-4 4,4 0 0 0 -4,-4 z m 56,0 a 4,4 0 0 0 -4,4 4,4 0 0 1 -4,4 h -8 a 4,4 0 0 0 -4,4 h 4 8 a 8,8 0 0 0 8,-8 z"/><path style="fill:none;stroke:#2d61a3;stroke-width:4;stroke-linecap:round;stroke-linejoin:round;stroke-dasharray:none;stroke-opacity:1" id="path11730" d="m 264,20 8,12 -8,12"/><path style="fill:none;stroke:#2d61a3;stroke-width:4;stroke-linecap:round;stroke-linejoin:round;stroke-dasharray:none;stroke-opacity:1" id="path11732" d="m 312,44 -8,-12 8,-12"/><path style="fill:none;stroke:#dc9c19;stroke-width:4;stroke-linecap:round;stroke-linejoin:round;stroke-dasharray:none;stroke-opacity:1" id="path11734" d="m 300,48 -12,8 -12,-8"/><path style="fill:none;stroke:#303547;stroke-width:4;stroke-linecap:round;stroke-linejoin:round;stroke-opacity:1;stroke-dasharray:none" id="path12102" d="M 224,40 V 24"/><path style="fill:none;stroke:#303547;stroke-width:4;stroke-linecap:round;stroke-linejoin:round;stroke-opacity:1;stroke-dasharray:none" id="path12104" d="m 216,32 h 16"/><path style="fill:none;stroke:#303547;stroke-width:4;stroke-linecap:round;stroke-linejoin:round;stroke-dasharray:none;stroke-opacity:1" id="path12244" d="m 282.34315,37.656854 11.3137,-11.313708"/><path style="fill:none;stroke:#303547;stroke-width:4;stroke-linecap:round;stroke-linejoin:round;stroke-dasharray:none;stroke-opacity:1" id="path12246" d="m 282.34315,26.343146 11.3137,11.313708"/><path id="path13809" style="fill:#303547;fill-opacity:1;stroke:none;stroke-width:4;stroke-linecap:round;stroke-linejoin:round;stroke-dasharray:none;stroke-opacity:1" d="M 96 72 A 24 24 0 0 0 72 96 A 24 24 0 0 0 96 120 A 24 24 0 0 0 120 96 A 24 24 0 0 0 96 72 z M 96 76 A 20 20 0 0 1 116 96 A 20 20 0 0 1 96 116 A 20 20 0 0 1 76 96 A 20 20 0 0 1 96 76 z"/><rect style="fill:#ecf9fc;stroke-width:4;stroke-linecap:round;stroke-linejoin:round" id="rect590" width="64" height="64" x="128" y="64"/><path id="path646" style="fill:#c6dbe6;fill-opacity:1;stroke-width:4;stroke-linecap:round;stroke-linejoin:round" d="m 140,68 a 8,8 0 0 0 -8,8 v 40 a 8,8 0 0 0 8,8 h 40 a 8,8 0 0 0 8,-8 V 76 a 8,8 0 0 0 -8,-8 z m 0,4 h 40 a 4,4 0 0 1 4,4 v 40 a 4,4 0 0 1 -4,4 h -40 a 4,4 0 0 1 -4,-4 V 76 a 4,4 0 0 1 4,-4 z"/><rect style="fill:#c6dbe6;fill-opacity:1;stroke:none;stroke-width:4;stroke-linecap:round;stroke-linejoin:round;stroke-dasharray:none;stroke-opacity:1" id="rect2108" width="64" height="64" x="192" y="64" rx="12"/><rect style="fill:#ecf9fc;fill-opacity:1;stroke:none;stroke-width:4;stroke-linecap:round;stroke-linejoin:round;stroke-dasharray:none;stroke-opacity:1" id="rect2110" width="56" height="56" x="196" y="68" rx="8"/><path id="rect651" style="fill:#9c8776;stroke-width:4;stroke-linecap:round;stroke-linejoin:round;fill-opacity:1" d="M 160 80 A 8 8 0 0 0 152.01953 87.714844 A 2 2 0 0 0 152 88 A 2 2 0 0 0 154 90 A 2 2 0 0 0 156 88 A 4 4 0 0 1 160 84 A 4 4 0 0 1 164 88 A 2 2 0 0 0 166 90 A 2 2 0 0 0 168 88 A 8 8 0 0 0 167.99805 87.902344 A 2 2 0 0 0 167.99805 87.900391 A 2 2 0 0 0 167.99805 87.898438 A 8 8 0 0 0 160 80 z M 152 94 C 149.784 94 148 95.784006 148 98 L 148 110 C 148 112.216 149.784 114 152 114 L 168 114 C 170.216 114 172 112.216 172 110 L 172 98 C 172 95.784006 170.216 94 168 94 L 152 94 z M 154 98 L 166 98 C 167.108 98 168 98.892001 168 100 L 168 108 C 168 109.108 167.108 110 166 110 L 154 110 C 152.892 110 152 109.108 152 108 L 152 100 C 152 98.892001 152.892 98 154 98 z M 160 102 A 2 2 0 0 0 158 104 A 2 2 0 0 0 160 106 A 2 2 0 0 0 162 104 A 2 2 0 0 0 160 102 z"/><rect style="fill:#c6dbe6;fill-opacity:1;stroke:none;stroke-width:4;stroke-linecap:round;stroke-linejoin:round;stroke-dasharray:none;stroke-opacity:1" id="rect597" width="64" height="64" x="0" y="128" rx="12"/><rect style="fill:#ecf9fc;fill-opacity:1;stroke:none;stroke-width:4;stroke-linecap:round;stroke-linejoin:round;stroke-dasharray:none;stroke-opacity:1" id="rect599" width="56" height="56" x="4" y="132" rx="8"/><path id="path601" style="fill:#9c8776;fill-opacity:1;stroke-width:4;stroke-linecap:round;stroke-linejoin:round" d="M 12 132 A 8 8 0 0 0 4 140 L 4 144 A 4 4 0 0 0 8 140 A 4 4 0 0 1 12 136 L 52 136 A 4 4 0 0 1 56 140 A 4 4 0 0 0 60 144 L 60 140 A 8 8 0 0 0 52 132 L 12 132 z M 4 176 L 4 180 A 8 8 0 0 0 12 188 L 16 188 L 20 188 L 24 188 L 40 188 L 47 188 L 52 188 A 8 8 0 0 0 60 180 L 60 176 A 4 4 0 0 0 56 180 A 4 4 0 0 1 52 184 L 47 184 L 44 184 L 20 184 L 16 184 L 12 184 A 4 4 0 0 1 8 180 A 4 4 0 0 0 4 176 z"/><path style="fill:none;stroke:#2d61a3;stroke-width:4;stroke-linecap:round;stroke-linejoin:round;stroke-dasharray:none;stroke-opacity:1" id="path605" d="m 56,172 -8,-12 8,-12"/><path style="fill:none;stroke:#dc9c19;stroke-width:4;stroke-linecap:round;stroke-linejoin:round;stroke-dasharray:none;stroke-opacity:1" id="path607" d="M 16,172 8,160 16,148"/><rect style="fill:#c6dbe6;fill-opacity:1;stroke:none;stroke-width:4;stroke-linecap:round;stroke-linejoin:round;stroke-dasharray:none;stroke-opacity:1" id="rect829" width="64" height="64" x="-128" y="128" rx="12" transform="scale(-1,1)"/><rect style="fill:#ecf9fc;fill-opacity:1;stroke:none;stroke-width:4;stroke-linecap:round;stroke-linejoin:round;stroke-dasharray:none;stroke-opacity:1" id="rect831" width="56" height="56" x="-124" y="132" rx="8" transform="scale(-1,1)"/><path id="path833" style="fill:#9c8776;fill-opacity:1;stroke-width:4;stroke-linecap:round;stroke-linejoin:round" d="m 116,132 a 8,8 0 0 1 8,8 v 4 a 4,4 0 0 1 -4,-4 4,4 0 0 0 -4,-4 H 76 a 4,4 0 0 0 -4,4 4,4 0 0 1 -4,4 v -4 a 8,8 0 0 1 8,-8 z m 8,44 v 4 a 8,8 0 0 1 -8,8 h -4 -4 -4 -16 -7 -5 a 8,8 0 0 1 -8,-8 v -4 a 4,4 0 0 1 4,4 4,4 0 0 0 4,4 h 5 3 24 4 4 a 4,4 0 0 0 4,-4 4,4 0 0 1 4,-4 z"/><path style="fill:none;stroke:#2d61a3;stroke-width:4;stroke-linecap:round;stroke-linejoin:round;stroke-dasharray:none;stroke-opacity:1" id="path835" d="m 72,172 8,-12 -8,-12"/><path style="fill:none;stroke:#dc9c19;stroke-width:4;stroke-linecap:round;stroke-linejoin:round;stroke-dasharray:none;stroke-opacity:1" id="path837" d="m 112,172 8,-12 -8,-12"/><g id="g854" transform="rotate(-90,160,160)"><rect style="fill:#c6dbe6;fill-opacity:1;stroke:none;stroke-width:4;stroke-linecap:round;stroke-linejoin:round;stroke-dasharray:none;stroke-opacity:1" id="rect839" width="64" height="64" x="-192" y="128" rx="12" transform="scale(-1,1)"/><rect style="fill:#ecf9fc;fill-opacity:1;stroke:none;stroke-width:4;stroke-linecap:round;stroke-linejoin:round;stroke-dasharray:none;stroke-opacity:1" id="rect841" width="56" height="56" x="-188" y="132" rx="8" transform="scale(-1,1)"/><path id="path843" style="fill:#9c8776;fill-opacity:1;stroke-width:4;stroke-linecap:round;stroke-linejoin:round" d="m 180,132 a 8,8 0 0 1 8,8 v 4 a 4,4 0 0 1 -4,-4 4,4 0 0 0 -4,-4 h -40 a 4,4 0 0 0 -4,4 4,4 0 0 1 -4,4 v -4 a 8,8 0 0 1 8,-8 z m 8,44 v 4 a 8,8 0 0 1 -8,8 h -4 -4 -4 -16 -7 -5 a 8,8 0 0 1 -8,-8 v -4 a 4,4 0 0 1 4,4 4,4 0 0 0 4,4 h 5 3 24 4 4 a 4,4 0 0 0 4,-4 4,4 0 0 1 4,-4 z"/><path style="fill:none;stroke:#2d61a3;stroke-width:4;stroke-linecap:round;stroke-linejoin:round;stroke-dasharray:none;stroke-opacity:1" id="path845" d="m 136,172 8,-12 -8,-12"/><path style="fill:none;stroke:#dc9c19;stroke-width:4;stroke-linecap:round;stroke-linejoin:round;stroke-dasharray:none;stroke-opacity:1" id="path847" d="m 176,172 8,-12 -8,-12"/></g><g id="g866" transform="matrix(0,1,1,0,64,0)"><rect style="fill:#c6dbe6;fill-opacity:1;stroke:none;stroke-width:4;stroke-linecap:round;stroke-linejoin:round;stroke-dasharray:none;stroke-opacity:1" id="rect856" width="64" height="64" x="-192" y="128" rx="12" transform="scale(-1,1)"/><rect style="fill:#ecf9fc;fill-opacity:1;stroke:none;stroke-width:4;stroke-linecap:round;stroke-linejoin:round;stroke-dasharray:none;stroke-opacity:1" id="rect858" width="56" height="56" x="-188" y="132" rx="8" transform="scale(-1,1)"/><path id="path860" style="fill:#9c8776;fill-opacity:1;stroke-width:4;stroke-linecap:round;stroke-linejoin:round" d="m 180,132 a 8,8 0 0 1 8,8 v 4 a 4,4 0 0 1 -4,-4 4,4 0 0 0 -4,-4 h -40 a 4,4 0 0 0 -4,4 4,4 0 0 1 -4,4 v -4 a 8,8 0 0 1 8,-8 z m 8,44 v 4 a 8,8 0 0 1 -8,8 h -4 -4 -4 -16 -7 -5 a 8,8 0 0 1 -8,-8 v -4 a 4,4 0 0 1 4,4 4,4 0 0 0 4,4 h 5 3 24 4 4 a 4,4 0 0 0 4,-4 4,4 0 0 1 4,-4 z"/><path style="fill:none;stroke:#2d61a3;stroke-width:4;stroke-linecap:round;stroke-linejoin:round;stroke-dasharray:none;stroke-opacity:1" id="path862" d="m 136,172 8,-12 -8,-12"/><path style="fill:none;stroke:#dc9c19;stroke-width:4;stroke-linecap:round;stroke-linejoin:round;stroke-dasharray:none;stroke-opacity:1" id="path864" d="m 176,172 8,-12 -8,-12"/></g><path style="fill:none;stroke:#c6dbe6;stroke-width:12;stroke-linecap:round;stroke-linejoin:miter;stroke-dasharray:none;stroke-opacity:1" id="path6700" d="m 268,76 40,40"/><path id="path3958" style="fill:#9c8776;stroke:none;stroke-width:4;stroke-linecap:round;stroke-linejoin:round" d="m 266,73 c -1.10457,0 -2,0.895431 -2,2 0.002,0.529608 0.21427,1.036741 0.58984,1.410156 l -0.004,0.0039 L 285.17188,96 l -20.51563,20.51758 -0.0703,0.0684 C 264.21085,116.96095 264.00008,117.4696 264,118 c 0,1.10457 0.89543,2 2,2 0.52961,-0.002 1.03674,-0.21427 1.41016,-0.58984 l 0.004,0.004 L 288,98.828125 l 20.58584,20.586035 0.004,-0.004 c 0.37342,0.37557 0.88055,0.58769 1.41016,0.58984 1.10457,0 2,-0.89543 2,-2 -8e-5,-0.5304 -0.21085,-1.03905 -0.58594,-1.41406 l -0.0703,-0.0684 L 290.82812,96 l 20.58594,-20.585938 -0.004,-0.0039 C 311.78573,75.036741 311.99785,74.529608 312,74 c 0,-1.104569 -0.89543,-2 -2,-2 -0.56462,-3.08e-4 -1.10307,0.238056 -1.48242,0.65625 L 288,93.173828 267.48242,73.65625 C 267.10307,73.238056 266.56462,72.999692 266,73 Z"/></g></svg>